<svg width="64" height="64" viewBox="0 0 64 64" fill="none" xmlns="http://www.w3.org/2000/svg">
  <path fill="#000000" d="M32 18c-7.732 0-14 6.268-14 14s6.268 14 14 14 14-6.268 14-14-6.268-14-14-14ZM30 6h4v8h-4V6ZM30 50h4v8h-4v-8ZM50 30h8v4h-8v-4ZM6 30h8v4H6v-4ZM45.435 15.736l2.828 2.828-5.657 5.657-2.828-2.828 5.657-5.657ZM10.08 48.264l2.828-2.828 5.657 5.657-2.828 2.828-5.657-5.657ZM45.435 48.264l-5.657-5.657 2.828-2.828 5.657 5.657-2.828 2.828ZM15.737 10.08l2.828 2.828-5.657 5.657-2.828-2.828 5.657-5.657Z"/>
</svg>
